REM DIRINDEX 1\2,1\3,1\4,1\5
REM DIRNAME "folder01","folder02","folder03","folder04","folder05"
TITLE ""
FILE "P1Q_j_1870-1883.mp3" MP3
  TRACK 01 AUDIO
    TITLE "3:cjc173_0812"
    INDEX 01 00:00:00
  TRACK 02 AUDIO
    TITLE "0:"
    INDEX 01 00:01:29
  TRACK 03 AUDIO
    TITLE "4:cjc173_0813"
    INDEX 01 00:01:51
  TRACK 04 AUDIO
    TITLE "0:"
    INDEX 01 00:07:26
  TRACK 05 AUDIO
    TITLE "5:cjc173_0814"
    INDEX 01 00:07:44
  TRACK 06 AUDIO
    TITLE "0:"
    INDEX 01 00:11:59
  TRACK 07 AUDIO
    TITLE "3:cjc173_0815"
    INDEX 01 00:12:29
  TRACK 08 AUDIO
    TITLE "0:"
    INDEX 01 00:14:18
  TRACK 09 AUDIO
    TITLE "4:cjc173_0816"
    INDEX 01 00:14:40
  TRACK 10 AUDIO
    TITLE "0:"
    INDEX 01 00:17:40
  TRACK 11 AUDIO
    TITLE "5:cjc173_0817"
    INDEX 01 00:17:60
  TRACK 12 AUDIO
    TITLE "0:"
    INDEX 01 00:22:06
  TRACK 13 AUDIO
    TITLE "3:cjc173_0818"
    INDEX 01 00:22:51
  TRACK 14 AUDIO
    TITLE "0:"
    INDEX 01 00:24:15
  TRACK 15 AUDIO
    TITLE "4:cjc173_0819"
    INDEX 01 00:24:36
  TRACK 16 AUDIO
    TITLE "0:"
    INDEX 01 00:28:36
  TRACK 17 AUDIO
    TITLE "5:cjc173_0820"
    INDEX 01 00:28:58
  TRACK 18 AUDIO
    TITLE "0:"
    INDEX 01 00:34:05
  TRACK 19 AUDIO
    TITLE "3:cjc173_0821"
    INDEX 01 00:34:52
  TRACK 20 AUDIO
    TITLE "0:"
    INDEX 01 00:35:65
  TRACK 21 AUDIO
    TITLE "4:cjc173_0822"
    INDEX 01 00:36:20
  TRACK 22 AUDIO
    TITLE "0:"
    INDEX 01 00:39:06
  TRACK 23 AUDIO
    TITLE "5:cjc173_0823"
    INDEX 01 00:39:26
  TRACK 24 AUDIO
    TITLE "0:"
    INDEX 01 00:43:47
  TRACK 25 AUDIO
    TITLE "3:cjc173_0824"
    INDEX 01 00:44:19
  TRACK 26 AUDIO
    TITLE "0:"
    INDEX 01 00:45:36
  TRACK 27 AUDIO
    TITLE "4:cjc173_0825"
    INDEX 01 00:45:60
  TRACK 28 AUDIO
    TITLE "0:"
    INDEX 01 00:51:33
  TRACK 29 AUDIO
    TITLE "5:cjc173_0826"
    INDEX 01 00:51:53
  TRACK 30 AUDIO
    TITLE "0:"
    INDEX 01 00:55:66
  TRACK 31 AUDIO
    TITLE "3:cjc173_0827"
    INDEX 01 00:56:38
  TRACK 32 AUDIO
    TITLE "0:"
    INDEX 01 00:57:61
  TRACK 33 AUDIO
    TITLE "4:cjc173_0828"
    INDEX 01 00:58:08
  TRACK 34 AUDIO
    TITLE "0:"
    INDEX 01 01:02:43
  TRACK 35 AUDIO
    TITLE "5:cjc173_0829"
    INDEX 01 01:02:62
  TRACK 36 AUDIO
    TITLE "0:"
    INDEX 01 01:06:56
  TRACK 37 AUDIO
    TITLE "3:cjc173_0830"
    INDEX 01 01:07:28
  TRACK 38 AUDIO
    TITLE "0:"
    INDEX 01 01:08:55
  TRACK 39 AUDIO
    TITLE "4:cjc173_0831"
    INDEX 01 01:09:02
  TRACK 40 AUDIO
    TITLE "0:"
    INDEX 01 01:13:48
  TRACK 41 AUDIO
    TITLE "5:cjc173_0832"
    INDEX 01 01:13:68
  TRACK 42 AUDIO
    TITLE "0:"
    INDEX 01 01:19:24
  TRACK 43 AUDIO
    TITLE "3:cjc173_0833"
    INDEX 01 01:19:71
  TRACK 44 AUDIO
    TITLE "0:"
    INDEX 01 01:21:13
  TRACK 45 AUDIO
    TITLE "4:cjc173_0834"
    INDEX 01 01:21:34
  TRACK 46 AUDIO
    TITLE "0:"
    INDEX 01 01:27:31
  TRACK 47 AUDIO
    TITLE "5:cjc173_0835"
    INDEX 01 01:27:51
  TRACK 48 AUDIO
    TITLE "0:"
    INDEX 01 01:32:54
  TRACK 49 AUDIO
    TITLE "3:cjc173_0836"
    INDEX 01 01:33:26
  TRACK 50 AUDIO
    TITLE "0:"
    INDEX 01 01:34:58
  TRACK 51 AUDIO
    TITLE "4:cjc173_0837"
    INDEX 01 01:35:03
  TRACK 52 AUDIO
    TITLE "0:"
    INDEX 01 01:39:40
  TRACK 53 AUDIO
    TITLE "5:cjc173_0838"
    INDEX 01 01:39:60
  TRACK 54 AUDIO
    TITLE "0:"
    INDEX 01 01:45:15
  TRACK 55 AUDIO
    TITLE "3:cjc173_0839"
    INDEX 01 01:45:60
  TRACK 56 AUDIO
    TITLE "0:"
    INDEX 01 01:47:32
  TRACK 57 AUDIO
    TITLE "4:cjc173_0840"
    INDEX 01 01:47:57
  TRACK 58 AUDIO
    TITLE "0:"
    INDEX 01 01:51:51
  TRACK 59 AUDIO
    TITLE "5:cjc173_0841"
    INDEX 01 01:51:71
  TRACK 60 AUDIO
    TITLE "0:"
    INDEX 01 01:55:21
  TRACK 61 AUDIO
    TITLE "3:cjc173_0842"
    INDEX 01 01:55:66
  TRACK 62 AUDIO
    TITLE "0:"
    INDEX 01 01:57:22
  TRACK 63 AUDIO
    TITLE "4:cjc173_0843"
    INDEX 01 01:57:44
  TRACK 64 AUDIO
    TITLE "0:"
    INDEX 01 02:01:59
  TRACK 65 AUDIO
    TITLE "5:cjc173_0844"
    INDEX 01 02:02:04
  TRACK 66 AUDIO
    TITLE "0:"
    INDEX 01 02:05:39
  TRACK 67 AUDIO
    TITLE "3:cjc173_0845"
    INDEX 01 02:06:09
  TRACK 68 AUDIO
    TITLE "0:"
    INDEX 01 02:07:56
  TRACK 69 AUDIO
    TITLE "4:cjc173_0846"
    INDEX 01 02:08:02
  TRACK 70 AUDIO
    TITLE "0:"
    INDEX 01 02:12:24
  TRACK 71 AUDIO
    TITLE "5:cjc173_0847"
    INDEX 01 02:12:41
  TRACK 72 AUDIO
    TITLE "0:"
    INDEX 01 02:17:33
  TRACK 73 AUDIO
    TITLE "3:cjc173_0848"
    INDEX 01 02:18:03
  TRACK 74 AUDIO
    TITLE "0:"
    INDEX 01 02:19:20
  TRACK 75 AUDIO
    TITLE "4:cjc173_0849"
    INDEX 01 02:19:41
  TRACK 76 AUDIO
    TITLE "0:"
    INDEX 01 02:25:64
  TRACK 77 AUDIO
    TITLE "5:cjc173_0850"
    INDEX 01 02:26:08
  TRACK 78 AUDIO
    TITLE "0:"
    INDEX 01 02:29:50
  TRACK 79 AUDIO
    TITLE "3:cjc173_0851"
    INDEX 01 02:30:18
  TRACK 80 AUDIO
    TITLE "0:"
    INDEX 01 02:31:58
  TRACK 81 AUDIO
    TITLE "4:cjc173_0852"
    INDEX 01 02:32:05
  TRACK 82 AUDIO
    TITLE "0:"
    INDEX 01 02:38:51
  TRACK 83 AUDIO
    TITLE "5:cjc173_0853"
    INDEX 01 02:38:68
  TRACK 84 AUDIO
    TITLE "0:"
    INDEX 01 02:43:60
